# xmcd
#
# Track frame offsets: 
#        182
#        12817
#        23577
#        34180
#        48217
#        62822
#        79887
#        92037
#        109237
#        124392
#        137057
#        146580
#        158352
#        172187
#        185717
#        197762
#        211550
#        224762
#        237340
#
# Disc length: 3347 seconds
#
# Revision: 3
# Processed by: cddbd v1.5.2PL0 Copyright (c) Steve Scherf et al.
# Submitted via: ExactAudioCopyFreeDBPlugin 1.0
#
DISCID=0f0d1113
DTITLE=Dolly Parton - Country Classics
DYEAR=1993
DGENRE=Country
TTITLE0=9 To 5
TTITLE1=Love Is Like A Butterfly
TTITLE2=Bubbling Over
TTITLE3=Coat Of Many Colours
TTITLE4=Gypsy, Joe And Me
TTITLE5=Down From Dover
TTITLE6=Bobby's Arms
TTITLE7=My Blue Ridge Mountain Boy
TTITLE8=Sandy's Song
TTITLE9=In The Good Old Days (When Times Were Bad)
TTITLE10=He's A Go Getter
TTITLE11=Hold Me
TTITLE12=Most Of All Why
TTITLE13=Down On Music Row
TTITLE14=Kentucky Gambler
TTITLE15=My Tennessee Mountain Home
TTITLE16=I'm A Drifter
TTITLE17=Early Morning Breeze
TTITLE18=Two Doors Down
EXTD=
EXTT0=
EXTT1=
EXTT2=
EXTT3=
EXTT4=
EXTT5=
EXTT6=
EXTT7=
EXTT8=
EXTT9=
EXTT10=
EXTT11=
EXTT12=
EXTT13=
EXTT14=
EXTT15=
EXTT16=
EXTT17=
EXTT18=
PLAYORDER=
